# xmcd CD database file
#
# Track frame offsets:
#	150
#	13017
#	27941
#	42137
#	56939
#	67436
#	81130
#	90457
#	101651
#	110650
#	120868
#	133533
#	142609
#	156509
#	169088
#	183152
#	193750
#	206668
#	224486
#	240908
#
# Disc length: 3341 seconds
#
# Revision: 0
# Processed by: cddbd v1.5.2PL0 Copyright (c) Steve Scherf et al.
# Submitted via: CDex 1.51
#
DISCID=180d0b14
DTITLE=Various Artist - 100 Hits Irish Party [CD4)
DYEAR=2010
DGENRE=Divers
TTITLE0=Noreen Leech -Reels: Reevy'sReel - Noreen's Fancy
TTITLE1=CiaranMarsden and GrainneKelly -Reels: The Scholar - Father Kelly's Reel - St. Anne's Reel
TTITLE2=Dublin CeiliBand -Reels: McDermott's Reels - The Sally Garden's - The Silver Spear
TTITLE3=Ivan Smyth -Reels: The Salamanca - Humours of Scariff
TTITLE4=Marina Meyler-Reels: Top Of The Stairs - The Clare Reel
TTITLE5=FinbarrDwyer -FinbarrDwyer's No. 2 - The Meadow
TTITLE6=Seamus Tansey-Sean McKenna's Reels
TTITLE7=Sean Ryan Trio -Providence Reel - Trip To Nenagh
TTITLE8=Denise Shiels-O'Carolan'sDraught
TTITLE9=FinbarrDwyer -The Concert Flute - Upstairs In A Tent
TTITLE10=Ted Furey-The Bunch Of Keys
TTITLE11=Brian VallelyGroup -OroSe Do BheathaBhaile/ Abbey
TTITLE12=Tom McHaile-Boulavogue
TTITLE13=CiaranMarsden and Gr·inneKelly -The Fair Headed Boy
TTITLE14=Marina Meyler-ArEireannNÌNeosfainn
TTITLE15=Lynn Saoirse-The Princess Royal
TTITLE16=Sean McGuire -Galway Rambler - London Lassies
TTITLE17=Seamus Tansey-Si BheagSi Mhor/ Sonny'sMazurka
TTITLE18=Lynn Saoirse-Hornpipes: Rights of Man - Cahir'sKitchen
TTITLE19=Na Fili-ImAonarSeal
EXTD=YEAR: 2010
EXTT0=
EXTT1=
EXTT2=
EXTT3=
EXTT4=
EXTT5=
EXTT6=
EXTT7=
EXTT8=
EXTT9=
EXTT10=
EXTT11=
EXTT12=
EXTT13=
EXTT14=
EXTT15=
EXTT16=
EXTT17=
EXTT18=
EXTT19=
PLAYORDER=
